<?xml version="1.0" encoding="iso-8859-1"?>
<!-- Generator: Adobe Illustrator 19.0.0, SVG Export Plug-In . SVG Version: 6.00 Build 0)  -->
<svg version="1.1" id="Capa_1" xmlns="http://www.w3.org/2000/svg" xmlns:xlink="http://www.w3.org/1999/xlink" x="0px" y="0px"
	 viewBox="0 0 512 512" style="enable-background:new 0 0 512 512;" xml:space="preserve">
<g>
	<g>
		<path d="M64.07,430.93C62.21,429.07,59.63,428,57,428s-5.21,1.07-7.07,2.93S47,435.37,47,438s1.07,5.21,2.93,7.07
			c1.86,1.86,4.44,2.93,7.07,2.93s5.21-1.07,7.07-2.93c1.86-1.86,2.93-4.44,2.93-7.07S65.93,432.79,64.07,430.93z"/>
	</g>
</g>
<g>
	<g>
		<path d="M326,224.333c5.523,0,10-4.477,10-10V58c0-31.981-26.019-58-58-58H58C26.019,0,0,26.019,0,58v396
			c0,31.981,26.019,58,58,58h220c31.981,0,58-26.019,58-58v-39.355c0-5.523-4.477-10-10-10s-10,4.477-10,10V428H103.667
			c-5.523,0-10,4.477-10,10s4.477,10,10,10H316v6c0,20.953-17.047,38-38,38H58c-20.953,0-38-17.047-38-38V85.258h296v129.076
			C316,219.856,320.477,224.333,326,224.333z M20,65.258V58c0-20.953,17.047-38,38-38h220c20.953,0,38,17.047,38,38v7.258H20z"/>
	</g>
</g>
<g>
	<g>
		<path d="M167.977,460c-5.523,0-10,4.477-10,10s4.477,10,10,10h0.095c5.523,0,9.953-4.477,9.953-10S173.5,460,167.977,460z"/>
	</g>
</g>
<g>
	<g>
		<path d="M213.024,32h-88c-5.523,0-10,4.477-10,10s4.477,10,10,10h88c5.523,0,10-4.477,10-10S218.547,32,213.024,32z"/>
	</g>
</g>
<g>
	<g>
		<path d="M284.095,217.097c-30.737-30.736-71.603-47.664-115.071-47.664c-43.468,0-84.334,16.928-115.071,47.664
			c-3.905,3.906-3.905,10.238,0,14.143c1.952,1.953,4.512,2.929,7.071,2.929c2.559,0,5.119-0.976,7.07-2.929
			c26.959-26.96,62.803-41.807,100.929-41.807s73.97,14.848,100.929,41.807c3.906,3.905,10.238,3.905,14.143,0
			C288,227.334,288,221.002,284.095,217.097z"/>
	</g>
</g>
<g>
	<g>
		<path d="M249.191,252.002c-44.204-44.203-116.13-44.203-160.334,0c-3.905,3.905-3.905,10.237,0,14.142
			c3.906,3.906,10.238,3.905,14.142,0c36.407-36.406,95.644-36.406,132.051,0c1.953,1.953,4.512,2.929,7.071,2.929
			c2.559,0,5.118-0.976,7.07-2.929C253.096,262.239,253.096,255.907,249.191,252.002z"/>
	</g>
</g>
<g>
	<g>
		<path d="M215.444,285.749c-12.399-12.399-28.884-19.228-46.419-19.228c-17.535,0-34.021,6.829-46.42,19.228
			c-3.905,3.906-3.905,10.238,0,14.143c3.906,3.905,10.238,3.905,14.143,0c8.621-8.622,20.084-13.37,32.277-13.37
			s23.655,4.748,32.277,13.37c1.953,1.953,4.511,2.929,7.071,2.929c2.559,0,5.118-0.976,7.071-2.93
			C219.349,295.986,219.349,289.654,215.444,285.749z"/>
	</g>
</g>
<g>
	<g>
		<path d="M176.1,325.5c-1.87-1.87-4.44-2.93-7.08-2.93c-2.63,0-5.21,1.06-7.07,2.93c-1.86,1.86-2.93,4.43-2.93,7.07
			c0,2.63,1.07,5.21,2.93,7.07s4.44,2.93,7.07,2.93c2.64,0,5.21-1.07,7.08-2.93c1.86-1.86,2.93-4.44,2.93-7.07
			C179.03,329.93,177.96,327.36,176.1,325.5z"/>
	</g>
</g>
<g>
	<g>
		<path d="M410,220.645c-56.243,0-102,45.757-102,102c0,56.243,45.757,102,102,102c56.243,0,102-45.757,102-102
			C512,266.402,466.243,220.645,410,220.645z M410,404.645c-45.215,0-82-36.785-82-82s36.785-82,82-82c45.215,0,82,36.785,82,82
			C492,367.86,455.215,404.645,410,404.645z"/>
	</g>
</g>
<g>
	<g>
		<path d="M448.461,292.26c-3.906-3.905-10.238-3.905-14.143,0l-32.921,32.922l-11.8-11.801c-3.906-3.905-10.238-3.905-14.143,0
			c-3.905,3.906-3.905,10.238,0,14.143l18.872,18.872c1.952,1.953,4.512,2.929,7.071,2.929c2.559,0,5.119-0.976,7.071-2.929
			l39.993-39.993C452.366,302.497,452.366,296.165,448.461,292.26z"/>
	</g>
</g>
<g>
</g>
<g>
</g>
<g>
</g>
<g>
</g>
<g>
</g>
<g>
</g>
<g>
</g>
<g>
</g>
<g>
</g>
<g>
</g>
<g>
</g>
<g>
</g>
<g>
</g>
<g>
</g>
<g>
</g>
</svg>
